<?xml version="1.0" encoding="utf-8"?>
<!-- Generator: Adobe Illustrator 27.7.0, SVG Export Plug-In . SVG Version: 6.00 Build 0)  -->
<svg version="1.1" id="Layer_1" xmlns="http://www.w3.org/2000/svg" xmlns:xlink="http://www.w3.org/1999/xlink" x="0px" y="0px"
	 viewBox="0 0 1000 1000" style="enable-background:new 0 0 1000 1000;" xml:space="preserve">
<style type="text/css">
	.st0{opacity:0.3;fill:#FE69AD;}
	.st1{fill:#FFFFFF;}
</style>
<g>
	<path class="st0" d="M970.7,407.9c0,181.4-92.8,238.2-197.3,275.4c-59.2,21.1-95.3,74.9-115.1,144.1
		C628.1,932.8,540.1,1000,389,1000C239,1000,29.3,892.5,29.3,566.3C29.3-69.4,970.7-68.5,970.7,407.9z"/>
	<path d="M970.7,339.9c0,181.4-92.8,238.2-197.3,275.4c-59.2,21.1-95.3,74.9-115.1,144.1C628.1,864.8,540.1,932.1,389,932.1
		C239,932.1,29.3,824.5,29.3,498.4C29.3-137.4,970.7-136.5,970.7,339.9z"/>
	
		<ellipse transform="matrix(0.9926 -0.1211 0.1211 0.9926 -10.6627 57.2588)" class="st1" cx="465.9" cy="116.4" rx="63.1" ry="49.8"/>
</g>
</svg>
